<svg viewBox="-12 -2 196 188" fill="none" xmlns="http://www.w3.org/2000/svg">
  <defs>
    <linearGradient id="p2" x1="40.8941" y1="74.1632" x2="57.9889" y2="114.051" gradientUnits="userSpaceOnUse"><stop stop-color="#04C3D8"/><stop offset="0.55" stop-color="#036F98"/><stop offset="0.986" stop-color="#01264B"/></linearGradient>
    <linearGradient id="p3" x1="0" y1="0" x2="0" y2="156.318" gradientUnits="userSpaceOnUse"><stop stop-color="#17EAD9"/><stop offset="1" stop-color="#6078EA"/></linearGradient>
    <linearGradient id="p4" x1="84.5085" y1="90.0787" x2="84.5085" y2="182.105" gradientUnits="userSpaceOnUse"><stop stop-color="#17EAD9"/><stop offset="1" stop-color="#6078EA"/></linearGradient>
    <linearGradient id="p5" x1="156.248" y1="114.474" x2="142.7" y2="80.8757" gradientUnits="userSpaceOnUse"><stop stop-color="#04C3D8"/><stop offset="0.55" stop-color="#036F98"/><stop offset="0.986" stop-color="#01264B"/></linearGradient>
    <linearGradient id="p6" x1="29.7344" y1="6.06354" x2="29.7344" y2="176.248" gradientUnits="userSpaceOnUse"><stop stop-color="#3023AE"/><stop offset="1" stop-color="#C86DD7"/></linearGradient>
  </defs>
  <path d="M20.8596 95.7572C35.1173 106.359 60.2416 100.976 76.2642 86.3907C68.2088 96.5136 61.477 107.355 51.392 113.091C45.2906 116.558 36.4158 116.759 29.7344 117.806C26.3055 110.948 23.3557 103.636 20.8596 95.7572Z" fill="url(#p2)"/>
  <path d="M20.8596 95.7573C32.4322 109.813 63.4815 102.666 79.504 88.0675C99.0185 63.5357 108.599 28.5154 110.793 6.05101L96.5729 0L12.0478 36.0288C12.1487 45.9373 12.8168 55.2785 14.0144 64.0777C16.044 62.4137 18.1997 60.9262 20.431 59.6277C26.6837 55.9089 33.3903 53.7154 39.4791 53.7154C45.4293 53.7154 50.2449 48.8619 50.2449 42.9118V41.2225C50.2449 45.2061 51.8711 48.8367 54.4932 51.4588C57.0901 54.0557 60.7081 55.6819 64.6917 55.6819C56.8127 55.6819 50.434 61.9599 50.2323 69.801C50.2323 66.9393 49.0725 64.3551 47.1689 62.4893C45.3032 60.5984 42.7189 59.426 39.8573 59.426C30.4152 59.426 21.7043 63.5483 14.859 70.1287C-7.31539 91.3703 -10.0384 138.467 44.509 156.179C13.8379 145.54 -8.56341 113.305 16.9265 81.0332C18.0736 86.1513 19.3595 91.0426 20.8596 95.7573Z" fill="url(#p3)"/>
  <path d="M172.084 96.4254C158.722 138.266 131.505 164.89 96.5727 182.438C92.4505 180.345 88.3913 178.152 84.5085 175.795C90.0931 150.141 100.418 123.037 114.978 104.582C128.063 91.219 155.835 84.1469 172.084 96.4254Z" fill="url(#p4)"/>
  <path d="M177.366 75.4109C175.967 82.8234 174.215 89.8072 172.084 96.4129C151.675 85.811 129.576 93.9169 116.478 107.28C126.462 94.6481 137.719 81.9661 149.141 76.4572C158.659 71.8559 168.29 73.1165 177.366 75.4109Z" fill="url(#p5)"/>
  <path d="M116.478 107.292C101.918 125.735 90.0932 150.128 84.5086 175.795C61.4139 161.965 42.4667 143.321 29.7344 117.793C47.4462 115.032 63.3301 102.64 76.2641 86.3908C95.7786 61.8589 108.599 28.5279 110.793 6.06354L181.123 36.0413C180.959 50.299 179.661 63.3969 177.366 75.4233C157.423 70.3682 134.795 84.1216 116.478 107.292Z" fill="url(#p6)"/>
</svg>
